<?xml version="1.0" encoding="UTF-8" standalone="no"?>
<svg
   xmlns:dc="http://purl.org/dc/elements/1.1/"
   xmlns:cc="http://creativecommons.org/ns#"
   xmlns:rdf="http://www.w3.org/1999/02/22-rdf-syntax-ns#"
   xmlns:svg="http://www.w3.org/2000/svg"
   xmlns="http://www.w3.org/2000/svg"
   xmlns:sodipodi="http://sodipodi.sourceforge.net/DTD/sodipodi-0.dtd"
   xmlns:inkscape="http://www.inkscape.org/namespaces/inkscape"
   version="1.1"
   id="svg2"
   xml:space="preserve"
   width="290.51999"
   height="228.58667"
   viewBox="0 0 290.51999 228.58667"
   sodipodi:docname="vectorstock_22546849.eps"><metadata
     id="metadata8"><rdf:RDF><cc:Work
         rdf:about=""><dc:format>image/svg+xml</dc:format><dc:type
           rdf:resource="http://purl.org/dc/dcmitype/StillImage" /></cc:Work></rdf:RDF></metadata><defs
     id="defs6" /><sodipodi:namedview
     pagecolor="#ffffff"
     bordercolor="#666666"
     borderopacity="1"
     objecttolerance="10"
     gridtolerance="10"
     guidetolerance="10"
     inkscape:pageopacity="0"
     inkscape:pageshadow="2"
     inkscape:window-width="640"
     inkscape:window-height="480"
     id="namedview4" /><g
     id="g10"
     inkscape:groupmode="layer"
     inkscape:label="ink_ext_XXXXXX"
     transform="matrix(1.3333333,0,0,-1.3333333,0,228.58667)"><g
       id="g12"
       transform="scale(0.1)"><path
         d="M 605.508,1183.38 1089.46,903.961 1282.9,1015.65 798.898,1295 Z m 774.452,-111.68 193.45,111.68 c -161.36,93.15 -322.6,186.16 -483.95,279.31 L 895.984,1351.03 Z m 40.66,-69.93 V 879.918 l -97.48,-56.281 V 945.484 L 1130.07,834.027 V 275.289 l 483.61,279.121 v 558.82 z m -936.608,-470.61 0.172,652.22 c -0.016,14.74 7.89,28.01 20.699,35.29 l 281.847,162.82 281.97,162.79 c 12.21,7.27 27.9,7.89 41.06,0.27 187.2,-108.07 374.18,-216.13 561.39,-324.21 14.01,-6.41 23.76,-20.54 23.76,-36.96 l -0.18,-652.22 c -0.01,-13.988 -7.28,-27.59 -20.29,-35.058 L 1392.18,333.051 1112.19,171.398 c -14.94,-9.359 -30.52,-9.359 -45.47,0 -186.388,107.614 -372.56,215.204 -558.95,322.801 -14.02,6.403 -23.758,20.551 -23.758,36.961 v 0"
         style="fill:#1e2b40;fill-opacity:1;fill-rule:nonzero;stroke:none"
         id="path14" /><path
         d="m 1926.49,1714.39 h -153.15 v -91.76 c 201.54,0 153.15,43.62 153.15,-642.97 0,-66.305 22.87,-107.129 68.89,-122.469 -46.02,-15.339 -68.89,-56.16 -68.89,-122.468 0,-686.5941 48.39,-642.973 -153.15,-642.973 V 0 h 153.15 c 96.53,0 152.82,64.7617 152.82,152.82 v 589.43 c 0,68.633 52.82,61.055 99.6,61.055 v 53.886 53.875 c -46.78,0 -99.6,-7.57 -99.6,61.067 v 589.427 c 0,88.05 -56.29,152.83 -152.82,152.83 z m -1674.064,0 h 153.152 v -91.76 c -201.531,0 -153.152,43.62 -153.152,-642.97 0,-66.305 -22.856,-107.129 -68.891,-122.469 46.035,-15.339 68.891,-56.16 68.891,-122.468 C 252.426,48.1289 204.047,91.75 405.578,91.75 V 0 H 252.426 C 155.906,0 99.6016,64.7617 99.6016,152.82 v 589.43 c 0,68.633 -52.8047,61.055 -99.6016,61.055 v 53.886 53.875 c 46.7969,0 99.6016,-7.57 99.6016,61.067 v 589.427 c 0,88.05 56.3044,152.83 152.8244,152.83 v 0"
         style="fill:#60afe5;fill-opacity:1;fill-rule:evenodd;stroke:none"
         id="path16" /></g></g></svg>
